# xmcd
#
# Track frame offsets:
#        150
#        21595
#        48049
#        70562
#        101371
#        114449
#        141302
#        167693
#
# Disc length: 2648 seconds
#
# Revision: 5
# Processed by: cddbd v1.5.1PL0 Copyright (c) Steve Scherf et al.
# Submitted via: ExactAudioCopy v0.95b2
#
DISCID=620a5608
DTITLE=Jim Hall - Ron Carter Duo - Alone Together
DYEAR=1972
DGENRE=Jazz
TTITLE0=St. Thomas
TTITLE1=Alone Together
TTITLE2=Receipt Please
TTITLE3=I'll Remember April
TTITLE4=Softly As In A Morning Sunrise
TTITLE5=Whose Blues
TTITLE6=Prelude To A Kiss
TTITLE7=Autumn Leaves
EXTD=Milestone\nYear: 1972\nCatalog Number: OJCCD-467-2\nRecorded Live
EXTD=\nProduced by: Dick Katz\nOther Artists: Jim Hall, guitar - Ron C
EXTD=arter, bass\n\nJim Hall, guitar - Ron Carter, bass\nRecorded live
EXTD=in 1972.\n YEAR: 1972 ID3G: 8
EXTT0=
EXTT1=
EXTT2=
EXTT3=
EXTT4=
EXTT5=
EXTT6=
EXTT7=
PLAYORDER=
